<?xml version="1.0" encoding="UTF-8"?>
<svg width="13.9546017px" height="16px" viewBox="0 0 13.9546017 16" version="1.1" xmlns="http://www.w3.org/2000/svg" xmlns:xlink="http://www.w3.org/1999/xlink">
    <title>编组</title>
    <g id="11111" stroke="none" stroke-width="1" fill="none" fill-rule="evenodd">
        <g id="登陆页（后台）2" transform="translate(-1013.000000, -547.000000)" fill="#D5D7DB" fill-rule="nonzero">
            <g id="编组-3" transform="translate(420.000000, 174.000000)">
                <g id="图文" transform="translate(0.000000, 76.000000)">
                    <g id="文字" transform="translate(480.000000, 0.000000)">
                        <g id="编组-7" transform="translate(100.000000, 77.000000)">
                            <g id="编组-5" transform="translate(0.000000, 208.000000)">
                                <g id="编组" transform="translate(13.000000, 12.000000)">
                                    <path d="M13.5538568,1.8790827 C10.3849896,1.8790827 7.23835997,0.0778318276 7.20500347,0.0555941626 C7.13829048,0.022237665 7.07157748,0 7.00486449,0 C6.93815149,0 6.86031967,0.0222376652 6.8047255,0.0555941626 C6.77136901,0.0778318277 3.54690757,1.8790827 0.411396803,1.8790827 C0.189020153,1.8790827 0,2.06810285 0,2.2904795 L0,8.02779708 C0,10.5740097 1.20083391,12.7644197 3.46907575,14.3544128 C5.15913829,15.5441279 6.82696317,15.9777623 6.89367616,15.9888812 C6.92703266,16 6.96038916,16 6.99374566,16 C7.02710215,16 7.06045865,16 7.09381515,15.9888812 C7.16052814,15.9666435 8.81723419,15.533009 10.5072967,14.3321751 C12.7644197,12.7310632 13.9541348,10.5517721 13.9541348,8.01667825 L13.9541348,2.2904795 C13.9652536,2.06810285 13.7762335,1.8790827 13.5538568,1.8790827 Z M11.0076442,6.56011119 L6.86031967,10.7074357 C6.74913134,10.818624 6.60458652,10.8742182 6.4600417,10.8742182 C6.30437804,10.8742182 6.15983322,10.818624 6.05976372,10.7074357 L3.49131341,8.13898541 C3.26893676,7.91660876 3.26893676,7.56080612 3.50243224,7.33842946 C3.60828238,7.23168652 3.75238288,7.17164333 3.90271022,7.17164333 C4.05303755,7.17164333 4.19713805,7.23168652 4.30298819,7.33842946 L6.47116053,9.50660181 L10.2070883,5.75955525 C10.4294649,5.5371786 10.7852675,5.5371786 11.0076442,5.77067408 C11.2189051,5.99141819 11.2189051,6.33936708 11.0076442,6.56011119 Z" id="形状"></path>
                                </g>
                            </g>
                        </g>
                    </g>
                </g>
            </g>
        </g>
    </g>
</svg>