<?xml version="1.0" encoding="UTF-8"?>
<svg width="14.3886403px" height="16px" viewBox="0 0 14.3886403 16" version="1.1" xmlns="http://www.w3.org/2000/svg" xmlns:xlink="http://www.w3.org/1999/xlink">
    <title>编组</title>
    <g id="11111" stroke="none" stroke-width="1" fill="none" fill-rule="evenodd">
        <g id="登陆页（后台）2" transform="translate(-1013.000000, -483.000000)" fill="#D5D7DB" fill-rule="nonzero">
            <g id="编组-3" transform="translate(420.000000, 174.000000)">
                <g id="图文" transform="translate(0.000000, 76.000000)">
                    <g id="文字" transform="translate(480.000000, 0.000000)">
                        <g id="编组-7" transform="translate(100.000000, 77.000000)">
                            <g id="编组-4" transform="translate(0.000000, 144.000000)">
                                <g id="编组" transform="translate(13.000000, 12.000000)">
                                    <path d="M12.2303443,6.67136487 L12.2303443,4.6729426 C12.2249757,3.3721213 11.6798422,2.13190156 10.7250908,1.24837761 C9.77033933,0.364853658 8.49165681,-0.0826801603 7.19432015,0.0126218778 C5.89698349,-0.0826801603 4.61830097,0.364853658 3.66354953,1.24837761 C2.70879809,2.13190156 2.16366459,3.3721213 2.15829604,4.6729426 L2.15829604,6.67136487 L0,6.67136487 L0,16 L14.3886403,16 L14.3886403,6.67136487 L12.2303443,6.67136487 M7.91375216,11.8193006 L7.91375216,14.0015777 L6.47488813,14.0015777 L6.47488813,11.8193006 C6.03963486,11.5992926 5.76248713,11.1558563 5.75545612,10.6682094 C5.76999993,10.3013352 5.92984197,9.95530399 6.19974908,9.70638965 C6.4696562,9.45747531 6.82747026,9.32611256 7.19432015,9.341257 C7.56117004,9.32611256 7.9189841,9.45747531 8.18889121,9.70638965 C8.45879833,9.95530399 8.61864037,10.3013352 8.63318418,10.6682094 C8.62615317,11.1558563 8.34900544,11.5992926 7.91375216,11.8193006 L7.91375216,11.8193006 Z M10.7914802,6.67136487 L3.59716007,6.67136487 L3.59716007,4.6809363 C3.57405103,3.7428842 3.95510127,2.84012084 4.64336163,2.20233291 C5.33162199,1.56454498 6.26073872,1.25322027 7.19432015,1.34756796 C8.12648377,1.25341785 9.05424642,1.56370114 9.74221925,2.1996938 C10.4301921,2.83568645 10.8122579,3.7362668 10.7914802,4.6729426 L10.7914802,6.67136487" id="形状"></path>
                                </g>
                            </g>
                        </g>
                    </g>
                </g>
            </g>
        </g>
    </g>
</svg>