<?xml version="1.0" encoding="UTF-8"?>
<svg width="32px" height="32px" viewBox="0 0 32 32" version="1.1" xmlns="http://www.w3.org/2000/svg" xmlns:xlink="http://www.w3.org/1999/xlink">
    <title>微信LOGO_方形@2x</title>
    <g id="20230919" stroke="none" stroke-width="1" fill="none" fill-rule="evenodd">
        <g id="远程面试" transform="translate(-1172.000000, -730.000000)" fill-rule="nonzero">
            <g id="微信LOGO_方形@2x" transform="translate(1172.000000, 730.000000)">
                <rect id="Rectangle" fill="#06C160" x="0" y="0" width="32" height="32" rx="16"></rect>
                <g id="Group" transform="translate(6.888136, 8.623729)" fill="#FFFFFF">
                    <path d="M13.0434821,4.63270792 C12.870531,4.61954607 12.6953643,4.61282119 12.5183251,4.61282119 C9.34894845,4.61282119 6.77966102,6.7680499 6.77966102,9.42665925 C6.77966102,9.97488862 6.88891276,10.5017132 7.09014932,10.9926487 C6.91615978,11.0042552 6.7402592,11.0101695 6.56271186,11.0101695 C5.70083954,11.0101695 5.14720406,10.8554485 4.39322034,10.6021151 C4.19984099,10.5458997 3.56048574,10.8687249 2.47515459,11.5705909 C2.39518217,11.6103126 2.31457084,11.6029845 2.23332059,11.5486065 C2.15207035,11.4942285 2.130433,11.4112994 2.16840853,11.2998191 C2.46040217,10.3483653 2.54340354,9.82027092 2.41741262,9.71553584 C0.8763232,8.70816515 0,7.27093424 0,5.50508475 C0,2.46471039 2.93822619,0 6.56271186,0 C9.8332973,0 12.5450953,2.00689251 13.0434821,4.63270792 Z M4.39322034,4.66440678 C4.9024456,4.66440678 5.31525424,4.25159814 5.31525424,3.74237288 C5.31525424,3.23314762 4.9024456,2.82033898 4.39322034,2.82033898 C3.88399508,2.82033898 3.47118644,3.23314762 3.47118644,3.74237288 C3.47118644,4.25159814 3.88399508,4.66440678 4.39322034,4.66440678 Z M8.78644068,4.66440678 C9.29566595,4.66440678 9.70847458,4.25159814 9.70847458,3.74237288 C9.70847458,3.23314762 9.29566595,2.82033898 8.78644068,2.82033898 C8.2772154,2.82033898 7.86440678,3.23314762 7.86440678,3.74237288 C7.86440678,4.25159814 8.2772154,4.66440678 8.78644068,4.66440678 Z" id="Combined-Shape"></path>
                    <path d="M12.7623929,14.2622748 C12.0407948,14.2622748 11.5772664,14.1327355 10.9459975,13.9206333 C10.7840916,13.8735673 10.2487948,14.1438511 9.34010696,14.7314846 C9.27315043,14.7647414 9.20565901,14.758606 9.13763271,14.7130783 C9.06960635,14.6675506 9.05149055,14.5981187 9.08328537,14.5047824 C9.32775555,13.7081827 9.397248,13.2660384 9.29176277,13.1783495 C8.00149369,12.3349336 7.26779666,11.1316196 7.26779666,9.65317125 C7.26779666,7.10763374 9.7278112,5.0440678 12.7623929,5.0440678 C15.7969746,5.0440678 18.2569892,7.10763374 18.2569892,9.65317125 C18.2569892,12.1987088 15.7969746,14.2622748 12.7623929,14.2622748 Z M10.9459975,8.94931802 C11.3723436,8.94931802 11.7179656,8.60369616 11.7179656,8.17734997 C11.7179656,7.75100377 11.3723436,7.40538191 10.9459975,7.40538191 C10.5196513,7.40538191 10.1740294,7.75100377 10.1740294,8.17734997 C10.1740294,8.60369616 10.5196513,8.94931802 10.9459975,8.94931802 Z M14.6241983,8.94931802 C15.0505445,8.94931802 15.3961663,8.60369616 15.3961663,8.17734997 C15.3961663,7.75100377 15.0505445,7.40538191 14.6241983,7.40538191 C14.1978521,7.40538191 13.8522302,7.75100377 13.8522302,8.17734997 C13.8522302,8.60369616 14.1978521,8.94931802 14.6241983,8.94931802 Z" id="Combined-Shape-Copy-4" transform="translate(12.762393, 9.898305) scale(-1, 1) translate(-12.762393, -9.898305) "></path>
                </g>
            </g>
        </g>
    </g>
</svg>